<svg width="241" height="96" viewBox="0 0 241 96" fill="none" xmlns="http://www.w3.org/2000/svg">
<rect width="56" height="56" transform="translate(20.5 20)" fill="url(#paint0_radial_20_31148)"/>
<path fill-rule="evenodd" clip-rule="evenodd" d="M54.6701 35.6953C53.8183 36.8073 53.3924 38.0104 53.3924 39.3047V54.125C53.3924 54.5078 53.3738 54.8997 53.3368 55.3008C53.2998 55.7018 53.2442 56.1029 53.1701 56.5039C54.1146 56.3216 54.9803 56.0436 55.7674 55.6699C56.5544 55.2962 57.2627 54.8177 57.8924 54.2344C58.522 53.651 59.0683 52.9629 59.5313 52.1699C59.9942 51.3769 60.3831 50.4792 60.6979 49.4766L61.309 47.5078V34.0273C57.7349 34.0273 55.522 34.5833 54.6701 35.6953ZM42.3646 35.5586H40.7812V37.0898H42.3646V35.5586ZM43.9479 37.8828H42.3646V39.4141H43.9479V37.8828ZM42.3646 39.8242H40.7812V41.3555H42.3646V39.8242ZM40.7813 42.1211H39.1979V43.6797H40.7813V42.1211ZM37.6146 34H36.0312V35.5586H37.6146V34ZM44.684 57.5977C44.1933 56.6133 43.9479 55.4557 43.9479 54.125V42.8867H42.3646V48.6289H40.7812V45.2109H39.1979V46.7422H37.6146V38.2656H36.0312V50.9531C36.0312 52.5208 36.3183 53.9792 36.8924 55.3281C37.4664 56.6771 38.2951 57.8483 39.3785 58.8418C40.4618 59.8353 41.7859 60.61 43.3507 61.166C44.9155 61.722 46.6886 62 48.6701 62L47.934 61.5215C47.4433 61.2025 46.9016 60.7148 46.309 60.0586C45.7164 59.4023 45.1748 58.582 44.684 57.5977ZM53.809 56.9961C52.5868 57.2695 51.2442 57.3789 49.7813 57.3242C48.7257 57.2695 47.7859 57.1191 46.9618 56.873C46.1377 56.627 45.4109 56.3125 44.7812 55.9297C45.2072 57.7526 45.9942 59.1152 47.1424 60.0176C48.2905 60.9199 48.9016 61.3984 48.9757 61.4531L49.9201 61.9453C51.7164 61.8359 53.3183 61.4805 54.7257 60.8789C56.1331 60.2773 57.3275 59.4889 58.309 58.5137C59.2905 57.5384 60.0359 56.4082 60.5451 55.123C61.0544 53.8379 61.309 52.4479 61.309 50.9531V49.6406C60.8831 51.026 60.3183 52.2155 59.6146 53.209C58.9109 54.2025 58.0729 55.0137 57.1007 55.6426C56.1285 56.2715 55.0313 56.7227 53.809 56.9961ZM40.7535 37.1172H39.1979V38.6484H40.7535V37.1172ZM62.1639 34C62.3119 34 62.4413 34.0528 62.5523 34.1585C62.6633 34.2642 62.7188 34.391 62.7188 34.5389C62.7188 34.6975 62.6633 34.8296 62.5523 34.9352C62.4413 35.0409 62.3119 35.0938 62.1639 35.0938C62.016 35.0938 61.8892 35.0409 61.7835 34.9352C61.6778 34.8296 61.625 34.6975 61.625 34.5389C61.625 34.391 61.6778 34.2642 61.7835 34.1585C61.8892 34.0528 62.016 34 62.1639 34ZM62.1639 35.0145C62.2908 35.0145 62.3991 34.9696 62.4889 34.8798C62.5787 34.7899 62.6236 34.6763 62.6236 34.5389C62.6236 34.4121 62.5787 34.3038 62.4889 34.214C62.3991 34.1242 62.2908 34.0793 62.1639 34.0793C62.0371 34.0793 61.9315 34.1242 61.8469 34.214C61.7624 34.3038 61.7201 34.4121 61.7201 34.5389C61.7201 34.6763 61.7624 34.7899 61.8469 34.8798C61.9315 34.9696 62.0371 35.0145 62.1639 35.0145ZM62.3779 34.531C62.4044 34.5046 62.4176 34.465 62.4176 34.4121C62.4176 34.3487 62.4017 34.3012 62.37 34.2695C62.3383 34.2378 62.2802 34.2219 62.1957 34.2219H61.9579V34.856H62.053V34.5865H62.1639L62.3383 34.856H62.4334L62.2591 34.5865C62.3119 34.5759 62.3515 34.5574 62.3779 34.531ZM62.1639 34.5072C62.2062 34.5072 62.2432 34.502 62.2749 34.4914C62.3066 34.4808 62.3225 34.4544 62.3225 34.4121C62.3225 34.3699 62.3093 34.3408 62.2828 34.325C62.2564 34.3091 62.2221 34.3012 62.1798 34.3012H62.053V34.5072H62.1639Z" fill="url(#paint1_linear_20_31148)"/>
<rect width="56" height="56" transform="translate(92.5 20)" fill="url(#paint2_radial_20_31148)"/>
<rect width="56" height="56" transform="translate(92.5 20)" fill="url(#paint3_radial_20_31148)"/>
<path fill-rule="evenodd" clip-rule="evenodd" d="M126.67 35.6953C125.818 36.8073 125.392 38.0104 125.392 39.3047V54.125C125.392 54.5078 125.374 54.8997 125.337 55.3008C125.3 55.7018 125.244 56.1029 125.17 56.5039C126.115 56.3216 126.98 56.0436 127.767 55.6699C128.554 55.2962 129.263 54.8177 129.892 54.2344C130.522 53.651 131.068 52.9629 131.531 52.1699C131.994 51.3769 132.383 50.4792 132.698 49.4766L133.309 47.5078V34.0273C129.735 34.0273 127.522 34.5833 126.67 35.6953ZM114.365 35.5586H112.781V37.0898H114.365V35.5586ZM115.948 37.8828H114.365V39.4141H115.948V37.8828ZM114.365 39.8242H112.781V41.3555H114.365V39.8242ZM112.781 42.1211H111.198V43.6797H112.781V42.1211ZM109.615 34H108.031V35.5586H109.615V34ZM116.684 57.5977C116.193 56.6133 115.948 55.4557 115.948 54.125V42.8867H114.365V48.6289H112.781V45.2109H111.198V46.7422H109.615V38.2656H108.031V50.9531C108.031 52.5208 108.318 53.9792 108.892 55.3281C109.466 56.6771 110.295 57.8483 111.378 58.8418C112.462 59.8353 113.786 60.61 115.351 61.166C116.916 61.722 118.689 62 120.67 62L119.934 61.5215C119.443 61.2025 118.902 60.7148 118.309 60.0586C117.716 59.4023 117.175 58.582 116.684 57.5977ZM125.809 56.9961C124.587 57.2695 123.244 57.3789 121.781 57.3242C120.726 57.2695 119.786 57.1191 118.962 56.873C118.138 56.627 117.411 56.3125 116.781 55.9297C117.207 57.7526 117.994 59.1152 119.142 60.0176C120.291 60.9199 120.902 61.3984 120.976 61.4531L121.92 61.9453C123.716 61.8359 125.318 61.4805 126.726 60.8789C128.133 60.2773 129.328 59.4889 130.309 58.5137C131.291 57.5384 132.036 56.4082 132.545 55.123C133.054 53.8379 133.309 52.4479 133.309 50.9531V49.6406C132.883 51.026 132.318 52.2155 131.615 53.209C130.911 54.2025 130.073 55.0137 129.101 55.6426C128.128 56.2715 127.031 56.7227 125.809 56.9961ZM112.753 37.1172H111.198V38.6484H112.753V37.1172ZM134.164 34C134.312 34 134.441 34.0528 134.552 34.1585C134.663 34.2642 134.719 34.391 134.719 34.5389C134.719 34.6975 134.663 34.8296 134.552 34.9352C134.441 35.0409 134.312 35.0938 134.164 35.0938C134.016 35.0938 133.889 35.0409 133.784 34.9352C133.678 34.8296 133.625 34.6975 133.625 34.5389C133.625 34.391 133.678 34.2642 133.784 34.1585C133.889 34.0528 134.016 34 134.164 34ZM134.164 35.0145C134.291 35.0145 134.399 34.9696 134.489 34.8798C134.579 34.7899 134.624 34.6763 134.624 34.5389C134.624 34.4121 134.579 34.3038 134.489 34.214C134.399 34.1242 134.291 34.0793 134.164 34.0793C134.037 34.0793 133.931 34.1242 133.847 34.214C133.762 34.3038 133.72 34.4121 133.72 34.5389C133.72 34.6763 133.762 34.7899 133.847 34.8798C133.931 34.9696 134.037 35.0145 134.164 35.0145ZM134.378 34.531C134.404 34.5046 134.418 34.465 134.418 34.4121C134.418 34.3487 134.402 34.3012 134.37 34.2695C134.338 34.2378 134.28 34.2219 134.196 34.2219H133.958V34.856H134.053V34.5865H134.164L134.338 34.856H134.433L134.259 34.5865C134.312 34.5759 134.352 34.5574 134.378 34.531ZM134.164 34.5072C134.206 34.5072 134.243 34.502 134.275 34.4914C134.307 34.4808 134.322 34.4544 134.322 34.4121C134.322 34.3699 134.309 34.3408 134.283 34.325C134.256 34.3091 134.222 34.3012 134.18 34.3012H134.053V34.5072H134.164Z" fill="url(#paint4_linear_20_31148)"/>
<rect width="56" height="56" transform="translate(164.5 20)" fill="url(#paint5_radial_20_31148)"/>
<rect width="56" height="56" transform="translate(164.5 20)" fill="url(#paint6_radial_20_31148)"/>
<path fill-rule="evenodd" clip-rule="evenodd" d="M197.039 37.4531C196.309 38.4063 195.943 39.4375 195.943 40.5469V53.25C195.943 53.5781 195.928 53.9141 195.896 54.2578C195.864 54.6016 195.816 54.9453 195.753 55.2891C196.563 55.1328 197.305 54.8945 197.979 54.5742C198.654 54.2539 199.261 53.8438 199.801 53.3438C200.34 52.8437 200.809 52.2539 201.205 51.5742C201.602 50.8945 201.936 50.125 202.205 49.2656L202.729 47.5781V36.0234C199.666 36.0234 197.769 36.5 197.039 37.4531ZM186.491 37.3359H185.134V38.6484H186.491V37.3359ZM187.848 39.3281H186.491V40.6406H187.848V39.3281ZM186.491 40.9922H185.134V42.3047H186.491V40.9922ZM185.134 42.9609H183.777V44.2969H185.134V42.9609ZM182.42 36H181.062V37.3359H182.42V36ZM188.479 56.2266C188.059 55.3828 187.848 54.3906 187.848 53.25V43.6172H186.491V48.5391H185.134V45.6094H183.777V46.9219H182.42V39.6562H181.062V50.5312C181.062 51.875 181.309 53.125 181.801 54.2812C182.293 55.4375 183.003 56.4414 183.932 57.293C184.86 58.1445 185.995 58.8086 187.336 59.2852C188.678 59.7617 190.197 60 191.896 60L191.265 59.5898C190.844 59.3164 190.38 58.8984 189.872 58.3359C189.364 57.7734 188.9 57.0703 188.479 56.2266ZM196.301 55.7109C195.253 55.9453 194.102 56.0391 192.848 55.9922C191.943 55.9453 191.138 55.8164 190.432 55.6055C189.725 55.3945 189.102 55.125 188.562 54.7969C188.928 56.3594 189.602 57.5273 190.586 58.3008C191.57 59.0742 192.094 59.4844 192.158 59.5312L192.967 59.9531C194.507 59.8594 195.88 59.5547 197.086 59.0391C198.293 58.5234 199.316 57.8477 200.158 57.0117C200.999 56.1758 201.638 55.207 202.074 54.1055C202.511 53.0039 202.729 51.8125 202.729 50.5312V49.4062C202.364 50.5938 201.88 51.6133 201.277 52.4648C200.674 53.3164 199.955 54.0117 199.122 54.5508C198.289 55.0898 197.348 55.4766 196.301 55.7109ZM185.11 38.6719H183.777V39.9844H185.11V38.6719ZM203.462 36C203.589 36 203.7 36.0453 203.795 36.1359C203.89 36.2264 203.938 36.3351 203.938 36.462C203.938 36.5978 203.89 36.7111 203.795 36.8016C203.7 36.8922 203.589 36.9375 203.462 36.9375C203.335 36.9375 203.226 36.8922 203.136 36.8016C203.045 36.7111 203 36.5978 203 36.462C203 36.3351 203.045 36.2264 203.136 36.1359C203.226 36.0453 203.335 36 203.462 36ZM203.462 36.8696C203.571 36.8696 203.663 36.8311 203.74 36.7541C203.817 36.6771 203.856 36.5797 203.856 36.462C203.856 36.3533 203.817 36.2604 203.74 36.1834C203.663 36.1064 203.571 36.0679 203.462 36.0679C203.353 36.0679 203.263 36.1064 203.19 36.1834C203.118 36.2604 203.082 36.3533 203.082 36.462C203.082 36.5797 203.118 36.6771 203.19 36.7541C203.263 36.8311 203.353 36.8696 203.462 36.8696ZM203.645 36.4552C203.668 36.4325 203.679 36.3986 203.679 36.3533C203.679 36.2989 203.666 36.2582 203.639 36.231C203.611 36.2038 203.562 36.1902 203.489 36.1902H203.285V36.7337H203.367V36.5027H203.462L203.611 36.7337H203.693L203.543 36.5027C203.589 36.4937 203.623 36.4778 203.645 36.4552ZM203.462 36.4348C203.498 36.4348 203.53 36.4303 203.557 36.4212C203.584 36.4121 203.598 36.3895 203.598 36.3533C203.598 36.317 203.587 36.2921 203.564 36.2785C203.541 36.2649 203.512 36.2582 203.476 36.2582H203.367V36.4348H203.462Z" fill="url(#paint7_linear_20_31148)"/>
<rect x="1" y="0.5" width="239" height="95" rx="4.5" stroke="#7B61FF" stroke-dasharray="10 5"/>
<defs>
<radialGradient id="paint0_radial_20_31148" cx="0" cy="0" r="1" gradientUnits="userSpaceOnUse" gradientTransform="translate(28) rotate(90) scale(56)">
<stop stop-color="#006FFF"/>
<stop offset="1" stop-color="#003C9E"/>
</radialGradient>
<linearGradient id="paint1_linear_20_31148" x1="44.847" y1="77.0457" x2="64.053" y2="53.4519" gradientUnits="userSpaceOnUse">
<stop stop-color="#C2C4CE"/>
<stop offset="0.39697" stop-color="#D6D9E2"/>
<stop offset="1" stop-color="white"/>
</linearGradient>
<radialGradient id="paint2_radial_20_31148" cx="0" cy="0" r="1" gradientUnits="userSpaceOnUse" gradientTransform="translate(28) rotate(90) scale(56)">
<stop stop-color="#006FFF"/>
<stop offset="1" stop-color="#003C9E"/>
</radialGradient>
<radialGradient id="paint3_radial_20_31148" cx="0" cy="0" r="1" gradientUnits="userSpaceOnUse" gradientTransform="translate(28) rotate(90) scale(56)">
<stop stop-color="#005ED9"/>
<stop offset="1" stop-color="#003386"/>
</radialGradient>
<linearGradient id="paint4_linear_20_31148" x1="116.847" y1="77.0457" x2="136.053" y2="53.4519" gradientUnits="userSpaceOnUse">
<stop stop-color="#C2C4CE"/>
<stop offset="0.39697" stop-color="#D6D9E2"/>
<stop offset="1" stop-color="white"/>
</linearGradient>
<radialGradient id="paint5_radial_20_31148" cx="0" cy="0" r="1" gradientUnits="userSpaceOnUse" gradientTransform="translate(28) rotate(90) scale(56)">
<stop stop-color="#006FFF"/>
<stop offset="1" stop-color="#003C9E"/>
</radialGradient>
<radialGradient id="paint6_radial_20_31148" cx="0" cy="0" r="1" gradientUnits="userSpaceOnUse" gradientTransform="translate(28) rotate(90) scale(56)">
<stop stop-color="#005ED9"/>
<stop offset="1" stop-color="#003386"/>
</radialGradient>
<linearGradient id="paint7_linear_20_31148" x1="188.619" y1="72.8963" x2="205.081" y2="52.673" gradientUnits="userSpaceOnUse">
<stop stop-color="#C2C4CE"/>
<stop offset="0.39697" stop-color="#D6D9E2"/>
<stop offset="1" stop-color="white"/>
</linearGradient>
</defs>
</svg>
